<svg xmlns="http://www.w3.org/2000/svg" id="Offer_brite_-_logo_-_white" data-name="Offer brite - logo - white" viewBox="0 0 178.5 146.458">
    <defs>
        <style>
            .cls-1{fill:#ca212e}
        </style>
    </defs>
    <path id="Path_4666" d="M338.838 219.23c1.458 1.676 1.48 1.85.392 3.5a14.238 14.238 0 0 1-7.922 5.593 22.976 22.976 0 0 1-9.642 1.11 8.682 8.682 0 0 1-8.227-8.771c-.022-.348 0-.718 0-1.262a18.52 18.52 0 0 1-2.394 1.175c-2.068.653-4.179 1.154-6.225 1.785a1.754 1.754 0 0 0-1.045.958 38.866 38.866 0 0 1-6.029 11.949 15.966 15.966 0 0 1-6.595 5.833 7 7 0 0 1-6.769-.261c-1.894-1.2-2.59-3.352-1.741-6.007.827-2.655 1.959-5.2 2.982-7.792.958-2.438 1.98-4.875 3.069-7.6a18.059 18.059 0 0 1-2.416 1.154c-2.024.631-4.113 1.11-6.138 1.741a1.857 1.857 0 0 0-1.066.958 35.47 35.47 0 0 1-7.748 14.038 19.974 19.974 0 0 1-4.875 3.722 6.874 6.874 0 0 1-5.92.239 4.581 4.581 0 0 1-2.7-5.659 68.6 68.6 0 0 1 2.59-7.356c2.2-5.55 4.462-11.078 6.747-16.585 1.719-4.135 3.33-8.336 5.31-12.34 2.263-4.527 5.681-8.1 10.6-9.729a17.346 17.346 0 0 1 5.964-.827c3.33.109 5.071 2.046 5.354 5.4.348 4.266-2.829 10.012-6.682 11.927a5.851 5.851 0 0 1-1.415.522 2.869 2.869 0 0 1-3.548-2.938c-.218-4.4 3.591-8.379 8.314-8.6a2.642 2.642 0 0 0-.871-2.5 2.942 2.942 0 0 0-3.2-.174 9.418 9.418 0 0 0-4.484 4.135c-1.589 2.829-2.938 5.789-4.288 8.749-.958 2.068-1.763 4.2-2.612 6.312-.152.37-.261.74-.414 1.219 3.178.457 4.331 2.59 4.614 5.485a12.451 12.451 0 0 0 5.311-1.045c4.07-1.545 6.529-4.483 7.966-8.575a72.187 72.187 0 0 1 4.527-10.186 18.431 18.431 0 0 1 10.142-8.923 14.2 14.2 0 0 1 6.529-.762 5.252 5.252 0 0 1 4.723 4.788c.392 3.482-.936 6.464-2.895 9.206a9.854 9.854 0 0 1-4.07 3.482c-2.633 1.153-4.7-.218-4.636-3.091a8.411 8.411 0 0 1 7.835-8.075 2.106 2.106 0 0 0 .392-.065c.239-2.481-1.654-3.722-3.983-2.655a10.388 10.388 0 0 0-4.832 4.679c-1.654 3.134-3.047 6.377-4.505 9.62-.784 1.741-1.48 3.548-2.2 5.311-.087.218-.131.457-.218.762 1.458.37 2.829.805 3.526 2.176a12.238 12.238 0 0 1 .871 2.655c.131.588.37.805.958.74a14.458 14.458 0 0 0 9.076-3.983c1-1.023 1.458-2.546 2.176-3.852 2.481-4.4 5.833-7.879 10.73-9.468a18.469 18.469 0 0 1 5.223-.849c4.331-.065 6.943 3.221 6.138 7.509a12.217 12.217 0 0 1-11.97 10.012c-1.2 0-2.394.065-3.591-.022-.892-.065-1.219.283-1.349 1.132-.522 3.461 1.611 6.072 5.2 6.312a12.555 12.555 0 0 0 8.227-2.59 33.412 33.412 0 0 0 3.156-2.938c.181-.147.399-.277.573-.408zm-37.653.131c-.065-.022-.109-.065-.174-.087-.109-.479-.239-.979-.348-1.458a1.781 1.781 0 0 0-1.828-1.415c-.392.022-.827.849-1.066 1.393-1.654 3.918-3.243 7.857-4.853 11.818-.631 1.567-1.262 3.134-1.806 4.745a1.326 1.326 0 0 0 .239 1.153c.218.174.827.044 1.132-.152a8.288 8.288 0 0 0 1.545-1.349 29.877 29.877 0 0 0 5.332-8.989 50.46 50.46 0 0 0 1.828-5.659zm-24.833.044a5.411 5.411 0 0 0-.522-1.937 4.1 4.1 0 0 0-1.741-1.088c-.109-.044-.609.675-.784 1.11-2 4.766-3.961 9.533-5.942 14.321a15.007 15.007 0 0 0-.87 2.329 4.011 4.011 0 0 0 .174 1.415 5.7 5.7 0 0 0 1.371-.3 4.159 4.159 0 0 0 1.066-.892 28.009 28.009 0 0 0 5.2-8.314 19.017 19.017 0 0 0 2.048-6.649zm46.576-4.679c2.416.348 4.44.3 5.876-1.611a19.062 19.062 0 0 0 3.352-6.986c.2-.849.609-1.937-.435-2.438a2.01 2.01 0 0 0-2.438.958 121.786 121.786 0 0 0-4.592 6.551c-.674 1.044-1.11 2.241-1.763 3.525z" class="cls-1" data-name="Path 4666" transform="translate(-222.323 -158.289)"/>
    <path id="Path_4667" d="M124.485 48.8c-.609 1.915-1.2 3.613-1.654 5.332-.936 3.5-.174 6.856.892 10.229 1.349 4.288 4.244 7.443 7.182 10.6s5.55 6.551 6.486 10.86a23.232 23.232 0 0 1-.087 10.665 45.831 45.831 0 0 1-5.92 13.929 21.363 21.363 0 0 1-10.186 8.662c-5.223 1.959-10.4 1.872-15.344-1.132-5.332-3.243-8.358-8.031-9.881-13.951-1.241-4.766-.457-9.4.936-13.929 1-3.2 2.525-6.225 3.831-9.315a3.676 3.676 0 0 1 .631-.805c.109.044.218.087.348.131a4.721 4.721 0 0 0 .022 1.241 26.562 26.562 0 0 0 1.11 4.157 2.418 2.418 0 0 0 3.852 1.154 5.784 5.784 0 0 0 2.829-6.007c-.218-1.393-.457-2.786-.631-4.2-.784-6.878 1.589-12.819 5.593-18.217a45.656 45.656 0 0 1 9.359-9.185 5.778 5.778 0 0 1 .632-.219zm6.007 40c-.087-.871-.109-1.741-.239-2.59a2.425 2.425 0 0 0-2.7-2.264 7.942 7.942 0 0 0-3.439 1.132c-2.829 1.85-4.614 4.658-6.246 7.531a54.53 54.53 0 0 0-4.984 12.58 59.6 59.6 0 0 0-1.48 7.313c-.2 1.48-.131 3.156 1.458 4.048 1.676.958 3.308.3 4.854-.457a2.047 2.047 0 0 0 .261-.2 17.751 17.751 0 0 0 5.136-5.659 50.679 50.679 0 0 0 5.311-12.319c.893-2.996 1.916-5.934 2.068-9.115z" class="cls-1" data-name="Path 4667" transform="translate(-95.354 -48.8)"/>
    <path id="Path_4668" d="M598.3 422.178c-.348.065-.609.131-.892.174-3.4.74-5.245-1.066-4.353-4.4a9.275 9.275 0 0 1 3.809-5.768 6.852 6.852 0 0 1 2.481-1c3.069-.544 4.788 1.393 3.918 4.4-.392 1.328-1.023 2.612-1.589 4.048h6.051c-.544 1.415-.936 2.59-1.415 3.743-1.937 4.636-3.918 9.272-5.811 13.929a2.1 2.1 0 0 0 .087 1.785 2.252 2.252 0 0 0 1.85.5 6.5 6.5 0 0 0 4.788-3.744c1.828-4.179 3.526-8.4 5.245-12.623.7-1.7.065-2.655-1.741-2.873l-.74-.065c.13-1.2 2.067-3.635 3.134-3.656a23.467 23.467 0 0 1 5.245.348 3.046 3.046 0 0 1 2.459 3.4 22.1 22.1 0 0 1-1.219 5.463c-1.458 3.9-3.156 7.7-4.68 11.557a2.177 2.177 0 0 0 .044 1.7c.479.762 1.371.718 2.176.479a7.788 7.788 0 0 0 5.049-4.614c2.22-5.289 4.375-10.621 6.573-15.932.5-1.219 1.023-2.459 1.611-3.874h-4.16c.74-1.371 1.328-2.5 1.98-3.591.131-.2.566-.261.871-.3a5.245 5.245 0 0 1 1.306 0c1.153.152 1.937-.131 2.2-1.436a1.373 1.373 0 0 1 .914-.914c2.525-.522 5.049-.979 7.574-1.436.174-.022.348 0 .74 0-.5 1.262-.936 2.416-1.458 3.743h6.573c-.784 1.415-1.393 2.568-2.089 3.7-.109.2-.588.218-.892.218-1.371.022-2.764.044-4.135 0a1.228 1.228 0 0 0-1.393.871c-1.915 4.723-3.874 9.424-5.811 14.147-1 2.438-1.915 4.919-3 7.335-.653 1.415.588 2.285 1.719 2.155 2.59-.283 5.289-3.352 5.659-5.332a23.678 23.678 0 0 1 7.792-13.712 15.7 15.7 0 0 1 11.883-4.113 5.619 5.619 0 0 1 5.311 4.9 10.249 10.249 0 0 1-2.068 7.356 11.907 11.907 0 0 1-10.643 5.223c-1.045-.044-2.111.022-3.156-.022-.7-.022-.958.261-1.066.914-.74 3.918 2.024 6.878 6.268 6.551a14.4 14.4 0 0 0 9.968-5.158 1.312 1.312 0 0 1 .74-.457 8.344 8.344 0 0 1-.13 1.654 10.567 10.567 0 0 1-7.357 7.2 23.486 23.486 0 0 1-10.12.871 8.318 8.318 0 0 1-6.834-4.9l-.392-.849c-1.328 1.2-2.5 2.459-3.874 3.482a11.357 11.357 0 0 1-7.7 2.394 4.85 4.85 0 0 1-4.919-3.831c-1.154.783-2.263 1.611-3.461 2.307a10.357 10.357 0 0 1-7.2 1.415 4.453 4.453 0 0 1-3.939-3.678c-1.2.805-2.264 1.611-3.4 2.264a10.555 10.555 0 0 1-5.92 1.5c-3.9-.152-5.942-2.546-5.028-6.333a54.05 54.05 0 0 1 2.612-7.226c1.262-3.156 2.612-6.268 3.918-9.424.055-.095.037-.243.037-.465zm48.012 8.619c2.481.74 4.68.131 6.007-1.654a18.274 18.274 0 0 0 3.281-7.243 5.273 5.273 0 0 0-.392-2 15.929 15.929 0 0 0-2.068.5 2.148 2.148 0 0 0-.87.784c-1.2 1.654-2.459 3.308-3.548 5.049-.911 1.43-1.608 2.997-2.413 4.567z" class="cls-1" data-name="Path 4668" transform="translate(-483.522 -329.396)"/>
    <path id="Path_4669" d="M444.356 408.788c-5.985 1.219-10.817 4.636-15.8 8.1 0-.3-.065-.479 0-.566a84.016 84.016 0 0 1 5.572-6.79A15.5 15.5 0 0 1 444.683 405a77.868 77.868 0 0 1 10.077-.044 6.962 6.962 0 0 1 6.725 7.487 9.641 9.641 0 0 1-2.938 6.246 18.677 18.677 0 0 1-5.637 3.983 4.865 4.865 0 0 0-.544.37c4.962 1.981 5.528 6.725 4.135 10.491-1.719 4.679-4.7 8.118-9.489 9.729a18.751 18.751 0 0 1-9.359.7 54.7 54.7 0 0 0-10.49-.653H425.9c.348-.958.631-1.719.936-2.459q5.68-13.842 11.4-27.684a2.3 2.3 0 0 1 .849-1.023c1.458-.958 2.96-1.828 4.418-2.742.309-.201.597-.417.853-.613zm-8.9 31.428a8.217 8.217 0 0 0 5.724-.022 13.777 13.777 0 0 0 7.683-7.7 10.5 10.5 0 0 0 1.088-5.158 2.567 2.567 0 0 0-3.308-2.263 14.029 14.029 0 0 1-4.288.457 1.05 1.05 0 0 0-1.2.762c-.74 1.85-1.5 3.678-2.242 5.506-1.13 2.738-2.261 5.48-3.458 8.418zm7.77-19c2.982.784 4.962.3 7.008-1.719a12.359 12.359 0 0 0 3.2-5.332 9.456 9.456 0 0 0 .174-3.831 3.44 3.44 0 0 0-3.7-2.829 1.484 1.484 0 0 0-1.523 1.11c-.805 2-1.632 4-2.459 6.007a708.402 708.402 0 0 0-2.701 6.594z" class="cls-1" data-name="Path 4669" transform="translate(-353.958 -327.324)"/>
    <path id="Path_4670" d="M656.709 241.276c1.393 1.349 1.5 1.872.675 3.286a13.633 13.633 0 0 1-10.186 6.965 9.545 9.545 0 0 1-3.417-.283 4.115 4.115 0 0 1-3.156-4.048c-.2-2.7 1.023-5.006 1.981-7.356 1.589-3.874 3.2-7.726 4.9-11.8-.522.109-.871.174-1.219.261-2.96.718-4.723-.871-4.266-3.874.544-3.526 3.091-6.595 6.007-7.291a6 6 0 0 1 1.067-.152c2.372-.087 3.765 1.371 3.308 3.7a42.273 42.273 0 0 1-1.589 4.875h5.855a2.263 2.263 0 0 1-.065.675 4285.736 4285.736 0 0 0-6.7 16.019 8.218 8.218 0 0 0-.457 1.219c-.37 1.5.283 2.22 1.828 2a7.109 7.109 0 0 0 4.854-3.352c.188-.235.362-.52.58-.844z" class="cls-1" data-name="Path 4670" transform="translate(-521.933 -180.379)"/>
    <path id="Path_4671" d="M710.8 400.148a4.593 4.593 0 1 1 4.7 4.549 4.6 4.6 0 0 1-4.7-4.549z" class="cls-1" data-name="Path 4671" transform="translate(-576.851 -320.12)"/>
    <path id="Path_4672" d="M670.521 106.172a4.535 4.535 0 0 1-2.176 4.222 3.9 3.9 0 0 1-4.309-.283 87.854 87.854 0 0 0-2.982-1.959c-.544-.348-.631-.675-.261-1.241a293.974 293.974 0 0 0 3.57-5.441c.392-.588.784-.762 1.415-.3.958.7 2.024 1.284 2.938 2.024a3.932 3.932 0 0 1 1.805 2.978zm-6.834 1.219c.98 1.045 2.155 1.589 2.786 1.023a4.831 4.831 0 0 0 1.545-2.438c.2-1.132-.784-1.806-1.893-2.264a366.242 366.242 0 0 0-2.438 3.679z" class="cls-1" data-name="Path 4672" transform="translate(-537.552 -89.566)"/>
    <path id="Path_4673" d="M595.669 76.848c-.958-.283-1.7-.435-2.372-.718-.218-.087-.348-.5-.414-.784-.152-.7-.174-1.458-.392-2.133-.109-.348-.566-.588-.849-.871-.174.283-.37.544-.522.827a3.1 3.1 0 0 0-.174.392c-.653 1.676-.631 1.654-2.329 1.088-.588-.2-.718-.479-.522-1.045.718-2.089 1.436-4.179 2.067-6.268.2-.631.436-.849 1.067-.631 1.241.414 2.481.805 3.7 1.241a2.5 2.5 0 0 1 1.741 2.154 2.235 2.235 0 0 1-1.154 2.394c-.522.3-.544.566-.414 1.132a32.493 32.493 0 0 1 .567 3.222zm-3.852-6.05a11.2 11.2 0 0 0 1.872-.152c.13-.022.326-.631.239-.718a10.98 10.98 0 0 0-1.436-1.175c-.262.782-.414 1.261-.676 2.047z" class="cls-1" data-name="Path 4673" transform="translate(-480.786 -62.744)"/>
    <path id="Path_4674" d="M361.575 83.211c.283-1.066.522-1.85.7-2.633.435-1.785.827-2.155 2.96-2.677-.261 1.175-.413 2.307-.762 3.352a1.3 1.3 0 0 0 .892 1.915c1.219.5 2.394 1.154 3.613 1.763a3.093 3.093 0 0 1-4 .871c-.827-.414-1.676-.805-2.808-1.349.414.936.675 1.654 1.045 2.329.392.7.348 1.132-.5 1.371-.3.087-.588.392-.871.392-.3.022-.805-.109-.914-.326-.979-2.046-1.872-4.135-2.851-6.181-.5-1.066.392-1.11.936-1.415.566-.3 1.132-.588 1.5.283.276.672.603 1.347 1.06 2.305z" class="cls-1" data-name="Path 4674" transform="translate(-300.777 -71.567)"/>
    <path id="Path_4675" d="M240.656 560.971a3.033 3.033 0 0 1-2.656-1.349c-.783-.979-1.523-2.024-2.285-3.025-.37-.479-.413-.849.174-1.262 1.654-1.175 3.265-2.394 4.875-3.613.566-.435.979-.5 1.393.2a24.823 24.823 0 0 1 2.459 4.266c.763 2.367-1.326 4.783-3.96 4.783zm.914-6.7c-1.154.871-2.263 1.7-3.374 2.546.566.936 1.153 1.806 2.2 1.741a2.469 2.469 0 0 0 2.2-1.7c.324-1.001-.155-1.807-1.025-2.59z" class="cls-1" data-name="Path 4675" transform="translate(-204.953 -442.007)"/>
    <path id="Path_4676" d="M609.96 671.778c-.936-2.307-1.85-4.505-2.7-6.725a.911.911 0 0 1 .414-.805 28.823 28.823 0 0 1 3.961-1.458 3.782 3.782 0 0 1 4.527 2.59 3.61 3.61 0 0 1-2.22 4.832c-1.262.522-2.542 1-3.982 1.566zm.065-6.595c.261.588.5 1.11.718 1.632.239.566.392 1.153.675 1.7a.93.93 0 0 0 .675.479 2.012 2.012 0 0 0 1.654-2.7c-.697-1.807-1.698-2.133-3.722-1.11z" class="cls-1" data-name="Path 4676" transform="translate(-495.839 -529.069)"/>
    <path id="Path_4677" d="M735 185.93c2.307-.522 4.505-1.045 6.725-1.545l.327-.065a2.442 2.442 0 0 1 3.243 1.654.749.749 0 0 1-.044.609c-1.371 2.459-2.742 4.9-4.113 7.335-1.458-.805-1.785-1.763-1.132-2.982a.572.572 0 0 0 .109-.2c.174-.544-1.741-3-2.307-2.938-1.72.134-1.959-.018-2.808-1.868zm4.919 1.328c.435.588.762 1.045 1.262 1.7.479-.827.849-1.458 1.393-2.394-1.066.28-1.785.454-2.655.694z" class="cls-1" data-name="Path 4677" transform="translate(-595.784 -154.72)"/>
    <path id="Path_4678" d="M527.27 688.638a20.488 20.488 0 0 0 .152 2.111c.174.958-.479 1-1.088 1.066-.588.044-1.262.3-1.349-.718-.174-2.133-.435-4.244-.588-6.377a1.082 1.082 0 0 1 .7-.805c1-.174 2.024-.218 3.025-.3a2.761 2.761 0 0 1 2.917 1.219 2.231 2.231 0 0 1-.392 2.916c.675 1.088 1.306 2.111 1.959 3.156-1.981.74-2.416.588-3.4-.958-.413-.636-.717-1.484-1.936-1.31zm.479-3.635c-.326.522-.631.805-.675 1.088-.044.413-.087 1.023.653.936.566-.065 1.153-.261 1.023-.936-.044-.326-.501-.566-1.001-1.091z" class="cls-1" data-name="Path 4678" transform="translate(-431.017 -545.427)"/>
    <path id="Path_4679" d="M709.8 142.38c-.37.392-.675.74-1.023 1.154.718.675 1.371 1.306 2.046 1.894a.763.763 0 0 1 .065 1.284c-.457.479-.849.609-1.371.109q-1.665-1.632-3.4-3.2c-.457-.414-.479-.718-.044-1.153 1.524-1.589 3.047-3.2 4.527-4.832.5-.544.849-.653 1.393-.087 1.067 1.088 2.2 2.111 3.308 3.134.414.392.457.675.043 1.066-.392.37-.718.871-1.328.283-.653-.631-1.328-1.219-2.111-1.959-.3.3-.544.588-.87.914.718.675 1.328 1.306 1.981 1.85.566.479.283.849-.065 1.262-.392.435-.718.522-1.175.087a61.2 61.2 0 0 0-1.976-1.806z" class="cls-1" data-name="Path 4679" transform="translate(-572.909 -117.939)"/>
    <path id="Path_4680" d="M546 62.364c-.544 1.393-.5 1.48.805 1.676.457.065.936.131 1.393.174.566.065 1.088.065.979.914-.109.762-.392 1.088-1.2.936-1.676-.3-3.352-.544-5.18-.849.152-1.284.261-2.525.435-3.743.174-1.262.348-2.5.631-3.743.065-.261.5-.653.718-.631 1.654.174 3.308.414 4.941.718.218.044.435.609.457.958.022.479-.131.958-.805.849a14.449 14.449 0 0 0-2.133-.326 1 1 0 0 0-.827.5c-.218.566.174.74.7.784.544.044 1.066.174 1.61.239.609.087 1.088.174.936 1.066-.152.871-.566.827-1.219.718-.741-.11-1.458-.153-2.241-.24z" class="cls-1" data-name="Path 4680" transform="translate(-445.416 -55.29)"/>
    <path id="Path_4681" d="M658.479 652.1l-.326-3.439c-.152-1.393-.37-2.808-.457-4.2a1.351 1.351 0 0 1 .544-1.11c.675-.283 1.2-1.306 2.089-.675 2.068 1.458 4.092 2.96 6.138 4.462a.637.637 0 0 1 .152.261c-1.2 1.262-1.654 1.328-2.96.609a.93.93 0 0 0-.762-.022 12.334 12.334 0 0 0-1.872 1.088 1.084 1.084 0 0 0-.435.675c-.174 1.651-.283 1.804-2.111 2.351zm1.521-6.945c.109 1 .174 1.7.261 2.568.653-.392 1.11-.675 1.7-1.045-.631-.5-1.153-.914-1.961-1.523z" class="cls-1" data-name="Path 4681" transform="translate(-535.304 -513.262)"/>
    <path id="Path_4682" d="M182.641 431.372c-.7-1.85-.631-2.133.479-3.134a1.018 1.018 0 0 0 .283-.74 14.1 14.1 0 0 0-.37-2.133 1.029 1.029 0 0 0-.522-.609c-1.306-.609-1.589-1.088-1.328-2.655a5.607 5.607 0 0 1 .827.087c2.2.566 4.4 1.132 6.595 1.719.914.239 1.436 2.525.675 3.069-2.156 1.501-4.38 2.916-6.639 4.396zm4.483-5.55c-1-.24-1.676-.414-2.546-.609.174.784.283 1.284.435 1.893.697-.414 1.241-.762 2.111-1.284z" class="cls-1" data-name="Path 4682" transform="translate(-162.433 -340.853)"/>
    <path id="Path_4683" d="M261.4 598.351c1-.414 1.785-.762 2.568-1.066 1.5-.588 3-1.219 4.549-1.741a1.735 1.735 0 0 1 1.415.174c.588.566 1.589 1 1.088 2.2-.849 2.068-1.632 4.157-2.438 6.246-.239.631-.588.7-1.045.24-.609-.609-1.5-1.154-.675-2.242a.748.748 0 0 0-.065-.675 26.414 26.414 0 0 0-1.763-1.763c-.131-.13-.457-.239-.566-.152-1.479 1.043-2.002-.372-3.068-1.221zm7.2-.218l-.2-.2c-.653.283-1.306.588-2.089.936.544.523.914.871 1.436 1.371.335-.822.596-1.475.853-2.106z" class="cls-1" data-name="Path 4683" transform="translate(-225.261 -476.492)"/>
    <path id="Path_4684" d="M485.464 688.318c0-1.045-.044-2.111.044-3.156.022-.283.457-.762.718-.762 1.437 0 2.895.131 4.331.174.609.022.784.3.784.892-.022.631-.3.827-.892.784a14.71 14.71 0 0 0-1.959-.044c-.218.022-.588.37-.566.522.044.261.283.675.522.718a8.516 8.516 0 0 0 1.828.109c.609 0 .827.283.805.87s-.218.892-.849.827a7.651 7.651 0 0 0-1.719-.087c-.3.043-.522.479-.805.74.239.239.457.588.74.653a7.543 7.543 0 0 0 1.719.131c.631 0 1.023.131 1 .914-.022.718-.283.958-.979.914a86.983 86.983 0 0 0-4.114-.174c-.718-.022-.936-.327-.892-1.023.087-1 .109-2.024.152-3.047.023.045.088.045.132.045z" class="cls-1" data-name="Path 4684" transform="translate(-400.333 -546.065)"/>
    <path id="Path_4685" d="M405.744 668.228c-.392 1.654-.392 1.654-1.719 1.241-.37-.109-.762-.218-1.154-.348-.74-.261-1.11-.022-1.11.827l2.808 1.045c-.131 1.611-.261 1.676-1.676 1.2-.479-.152-.979-.283-1.458-.414a.805.805 0 0 0-.3.022c-.131.326-.283.675-.479 1.175.871.283 1.676.566 2.481.827.566.174.892.37.631 1.088-.239.631-.522.892-1.2.653-1.328-.479-2.677-.87-3.983-1.393-.283-.109-.675-.675-.609-.892.675-2.242 1.415-4.462 2.2-6.856 1.933.628 3.718 1.216 5.568 1.825z" class="cls-1" data-name="Path 4685" transform="translate(-332.105 -531.983)"/>
    <path id="Path_4686" d="M795.983 274.089c-.043-.827-.043-1.589-.152-2.329-.044-.261-.37-.457-.566-.7-.2.239-.479.435-.544.7-.152.631-.218 1.284-.326 1.915a2.255 2.255 0 0 1-2.111 2.133 2.558 2.558 0 0 1-2.568-1.458 8.472 8.472 0 0 1-.653-2.068c-.326-1.741-.087-2.046 1.85-2.329v.914a4.956 4.956 0 0 0 .087 1.393c.131.348.5.588.784.892a4.734 4.734 0 0 0 .522-.979 13.154 13.154 0 0 1 .5-2.307 2.34 2.34 0 0 1 4.135-.239 6.6 6.6 0 0 1 .849 2.2c.326 1.588-.044 2.023-1.807 2.262z" class="cls-1" data-name="Path 4686" transform="translate(-637.985 -220.679)"/>
    <path id="Path_4687" d="M439.9 677.558c2.176-.065 2.438.087 2.873 1.915.2.849.348 1.7.566 2.786.522-.762.936-1.349 1.328-1.959 1.2-1.893 1.175-1.893 3.591-1.371a15.118 15.118 0 0 1-.827 1.458 225.328 225.328 0 0 1-3.5 5.093 1.458 1.458 0 0 1-1.154.5 1.417 1.417 0 0 1-1.023-.74c-.654-2.502-1.223-5.049-1.854-7.682z" class="cls-1" data-name="Path 4687" transform="translate(-364.911 -540.703)"/>
    <path id="Path_4688" d="M448.739 68.673a2.8 2.8 0 0 1-.544-.871q-.62-3.363-1.11-6.725c-.044-.239.261-.631.522-.74a4.165 4.165 0 0 1 1.175-.218c.566-.087.849.065.958.7.218 1.5.544 2.982.762 4.483.087.653.261.914.958.718.544-.152 1.153-.152 1.7-.3.762-.2 1.219-.109 1.349.805.131.805-.022 1.2-.892 1.306-1.548.232-3.072.537-4.878.842z" class="cls-1" data-name="Path 4688" transform="translate(-370.529 -57.638)"/>
    <path id="Path_4689" d="M775.258 233.64c-1.5 1.306-1.806 1.262-2.59-.37-.566-1.175-1.2-2.307-1.7-3.5a1.071 1.071 0 0 1 .261-1c2.046-1.132 4.135-2.2 6.225-3.243.2-.087.544.109.805.2.043.022.065.131.087.2.914 1.611.914 1.611-.718 2.481-1.045.544-2.089 1.132-3.177 1.632-.675.3-.74.653-.414 1.262.463.771.829 1.576 1.221 2.338z" class="cls-1" data-name="Path 4689" transform="translate(-623.898 -187.042)"/>
    <path id="Path_4690" d="M497.2 59.3c0-1.045.044-2.111-.022-3.156-.044-.718.152-1.045.958-1.045 1.654 0 1.654-.044 1.654 1.632 0 1.154.065 2.329 0 3.482-.043 1 .37 1.284 1.284 1.132a8.635 8.635 0 0 1 1.306-.044c1.154 0 1.611.653 1.2 1.719a.83.83 0 0 1-.653.392c-1.632.065-3.265.044-4.9.087-.609.022-.827-.239-.827-.849.022-1.132 0-2.242 0-3.373.023.023.023.023 0 .023z" class="cls-1" data-name="Path 4690" transform="translate(-409.72 -53.728)"/>
    <path id="Path_4691" d="M569.918 673.792a19.084 19.084 0 0 1-1.066 2.459 4.77 4.77 0 0 0-.239 4.462c.283.74.152 1.2-.7 1.284-.7.065-1.7.74-1.763-.7-.087-2.263-1.7-3.439-3.221-4.723-.392-.326-.762-.718-1.132-1.066.022-.109.065-.218.087-.327a6.829 6.829 0 0 1 2.351-.218c.7.2 1.219.958 1.981 1.589a7.079 7.079 0 0 1 1.2-2.329 6.748 6.748 0 0 1 2.307-.827z" class="cls-1" data-name="Path 4691" transform="translate(-460.28 -537.459)"/>
    <path id="Path_4692" d="M685.814 616.288c-.392-1.959-.435-3.613 1.893-4.288a16.549 16.549 0 0 1 .109 2.307 5.642 5.642 0 0 0 1.763 4.766c.5.479.566.914-.109 1.262-.566.283-1.175 1.545-1.806.37-1.241-2.329-3.5-2.655-5.659-3.286a5.511 5.511 0 0 1-.805-.392c.2-.239.392-.457.566-.7a1.968 1.968 0 0 1 2.633-.457 12.171 12.171 0 0 0 1.415.418z" class="cls-1" data-name="Path 4692" transform="translate(-553.694 -489.422)"/>
    <path id="Path_4693" d="M305.9 621.361c2.786-1.959 2.394-4.853 2.351-7.661 2.5.522 2.111 2.329 2.09 4.2 1.741-.74 3.4-1.328 4.636.74a20.513 20.513 0 0 1-3.025 1 4.5 4.5 0 0 0-2.916 2c-1.088 1.458-1.219 1.458-2.59.152a2.365 2.365 0 0 1-.218-.239 1.3 1.3 0 0 1-.328-.192z" class="cls-1" data-name="Path 4693" transform="translate(-260.076 -490.752)"/>
    <path id="Path_4694" d="M207.988 505.772c.261.609.479 1.154.718 1.654.784 1.611.784 1.611-1.132 2.35-.784-1.676-1.589-3.352-2.307-5.049-.065-.152.239-.588.457-.7 1.915-.914 3.852-1.785 5.789-2.7.805-.392 1.023.174 1.241.718.2.566.784 1.175-.218 1.611-1.132.479-2.22 1.023-3.352 1.524-.39.2-.76.374-1.196.592z" class="cls-1" data-name="Path 4694" transform="translate(-181.339 -402.739)"/>
    <path id="Path_4695" d="M194.419 470.242c.3.979.566 1.806.827 2.612.3.936-.457.958-1 1.175-.609.218-.827-.109-1-.631-.392-1.349-.784-2.7-1.241-4.026-.239-.675-.109-1 .588-1.2a203.705 203.705 0 0 0 5.876-1.872c1.045-.348 1.023.479 1.2 1.045.152.544.544 1.132-.5 1.393-1.569.415-3.095.981-4.75 1.504z" class="cls-1" data-name="Path 4695" transform="translate(-170.882 -375.37)"/>
    <path id="Path_4696" d="M412.7 68.506a2.471 2.471 0 0 1 .544-.5 9.746 9.746 0 0 1 1.132-.348c.588-.2.871.044 1.045.588.631 2.133 1.306 4.266 1.894 6.421.37 1.306-.914 1-1.5 1.349-.522.3-.892.087-1.066-.479-.653-2.22-1.306-4.418-1.959-6.638-.046-.045-.046-.111-.09-.393z" class="cls-1" data-name="Path 4696" transform="translate(-343.631 -63.5)"/>
</svg>
