<svg width="100" height="40" viewBox="0 0 152 40" fill="none" xmlns="http://www.w3.org/2000/svg">
<path d="M68.232 35.6875C69.0858 36.669 69.0987 36.7709 68.4615 37.7371C67.346 39.3381 65.7043 40.4972 63.8223 41.0124C62.008 41.6287 60.0829 41.8503 58.1759 41.6625C56.8651 41.5938 55.6317 41.0208 54.7337 40.0635C53.8358 39.1061 53.3428 37.8386 53.3581 36.5261C53.3452 36.3223 53.3581 36.1056 53.3581 35.7871C52.9079 36.0498 52.4394 36.2798 51.9562 36.4752C50.7451 36.8576 49.5089 37.151 48.3108 37.5205C48.1753 37.5662 48.051 37.6398 47.9456 37.7364C47.8402 37.833 47.7561 37.9505 47.6988 38.0815C46.9354 40.6006 45.7408 42.9681 44.1682 45.0789C43.2264 46.557 41.8881 47.7406 40.3061 48.4948C39.6864 48.8068 38.9977 48.9565 38.3044 48.9298C37.6111 48.903 36.9359 48.7008 36.3421 48.3419C35.233 47.6392 34.8254 46.379 35.3226 44.8242C35.8069 43.2694 36.4698 41.779 37.0688 40.2611C37.6298 38.8334 38.2283 37.4063 38.8661 35.8105C38.4118 36.0705 37.9389 36.2963 37.4512 36.4863C36.266 36.8558 35.0426 37.1363 33.8568 37.5058C33.7208 37.5533 33.5955 37.6274 33.4883 37.7237C33.3812 37.82 33.2942 37.9366 33.2325 38.0668C32.3674 41.1175 30.8153 43.9296 28.6952 46.2876C27.8615 47.1568 26.8986 47.892 25.8404 48.4672C25.3095 48.7476 24.7227 48.9057 24.1229 48.9299C23.523 48.9541 22.9253 48.8439 22.3736 48.6072C21.7381 48.3593 21.221 47.8787 20.9272 47.2631C20.6335 46.6475 20.5853 45.9431 20.7925 45.2932C21.2159 43.8297 21.7223 42.3915 22.3092 40.9855C23.5975 37.7354 24.9222 34.4981 26.2603 31.2732C27.2669 28.8517 28.2104 26.3916 29.3699 24.0468C30.6951 21.3958 32.6967 19.3034 35.5773 18.3494C36.7043 17.9856 37.8864 17.8217 39.0699 17.8651C41.0199 17.929 42.0395 19.0633 42.2052 21.0274C42.409 23.5256 40.5485 26.8905 38.2922 28.012C38.0303 28.1492 37.7518 28.2519 37.4635 28.3176C37.2089 28.3801 36.9432 28.382 36.6877 28.3234C36.4322 28.2647 36.1939 28.1471 35.992 27.9799C35.7901 27.8127 35.6301 27.6005 35.5248 27.3604C35.4196 27.1203 35.372 26.8589 35.3858 26.5971C35.2581 24.0205 37.4887 21.6903 40.2545 21.5609C40.3058 21.2936 40.2857 21.0174 40.1961 20.7604C40.1066 20.5033 39.9508 20.2745 39.7445 20.0969C39.4754 19.9006 39.1552 19.7865 38.8226 19.7684C38.49 19.7503 38.1593 19.829 37.8705 19.995C36.7509 20.4885 35.8271 21.3404 35.2447 22.4165C34.3141 24.0732 33.5242 25.8066 32.7336 27.54C32.1726 28.751 31.7012 29.9995 31.204 31.2363C31.115 31.453 31.0511 31.6697 30.9615 31.9502C32.8226 32.2178 33.4978 33.4669 33.6635 35.1622C34.7326 35.1888 35.7944 34.9799 36.7737 34.5503C39.1571 33.6455 40.5971 31.925 41.4386 29.5287C42.1673 27.475 43.0536 25.4807 44.0897 23.5637C45.3368 21.133 47.4592 19.2657 50.0289 18.3383C51.251 17.8926 52.5605 17.7397 53.8524 17.8921C54.5686 17.962 55.2376 18.2809 55.7429 18.7932C56.2483 19.3056 56.558 19.9789 56.6182 20.696C56.8478 22.7351 56.0701 24.4813 54.9228 26.0871C54.3319 26.9738 53.5069 27.6796 52.5394 28.1261C50.9975 28.8014 49.7871 27.9985 49.8246 26.316C49.8704 25.1004 50.3644 23.9446 51.2116 23.0715C52.0587 22.1984 53.199 21.6697 54.4128 21.5873C54.4903 21.5818 54.5672 21.5691 54.6423 21.5492C54.7823 20.0963 53.6737 19.3696 52.3099 19.9944C51.0889 20.5687 50.0934 21.5326 49.4802 22.7345C48.5116 24.5698 47.6959 26.4689 46.8421 28.368C46.3829 29.3876 45.9754 30.4457 45.5537 31.4782C45.5028 31.6058 45.477 31.7458 45.4261 31.9244C46.2799 32.1411 47.0827 32.3958 47.4909 33.1987C47.7197 33.6958 47.8909 34.2174 48.001 34.7535C48.0777 35.0978 48.2176 35.2249 48.562 35.1868C50.5531 35.0599 52.4355 34.2338 53.877 32.8543C54.4626 32.2553 54.7308 31.3634 55.1512 30.5986C56.6041 28.0219 58.5671 25.9846 61.4348 25.0541C62.4252 24.7424 63.4553 24.5749 64.4934 24.5569C67.0297 24.5188 68.5593 26.4431 68.0879 28.9542C67.7867 30.5956 66.9212 32.0801 65.6411 33.1508C64.3611 34.2215 62.747 34.811 61.0782 34.8173C60.3755 34.8173 59.6762 34.8554 58.9753 34.8044C58.4529 34.7664 58.2614 34.9702 58.1853 35.4673C57.8796 37.4941 59.1287 39.0231 61.2304 39.1637C62.9651 39.2429 64.6718 38.7056 66.0482 37.647C66.7007 37.1139 67.318 36.5391 67.8964 35.9264C68.0024 35.8404 68.1301 35.7642 68.232 35.6875ZM46.1821 35.7642C46.144 35.7513 46.1182 35.7262 46.0802 35.7133C46.0163 35.4328 45.9402 35.14 45.8764 34.8595C45.8257 34.6166 45.69 34.3997 45.4938 34.2479C45.2976 34.096 45.0537 34.0191 44.8059 34.0308C44.5763 34.0437 44.3216 34.528 44.1816 34.8466C43.213 37.141 42.2825 39.4477 41.3397 41.7673C40.9702 42.6849 40.6006 43.6026 40.2821 44.546C40.2518 44.6617 40.2487 44.7829 40.273 44.9C40.2973 45.0171 40.3483 45.127 40.422 45.2212C40.5497 45.3231 40.9063 45.247 41.0849 45.1322C41.4181 44.9074 41.722 44.642 41.9897 44.3422C43.3317 42.7846 44.3887 41.0027 45.1122 39.0782C45.5338 37.9955 45.8913 36.889 46.1827 35.7642H46.1821ZM31.6397 35.79C31.6094 35.3961 31.5057 35.0114 31.334 34.6557C31.0537 34.3603 30.7028 34.141 30.3144 34.0185C30.2506 33.9928 29.9578 34.4138 29.8553 34.6686C28.6841 37.4596 27.5357 40.2512 26.3756 43.0551C26.1684 43.4948 25.998 43.951 25.8662 44.4189C25.8504 44.699 25.8849 44.9797 25.9681 45.2476C26.2419 45.2223 26.5116 45.1633 26.7709 45.0719C27.0068 44.934 27.2179 44.7574 27.3952 44.5495C28.6887 43.1183 29.7195 41.4701 30.4403 39.6808C31.0761 38.4677 31.4827 37.1477 31.6397 35.7871V35.79ZM58.9149 33.0499C60.3298 33.2537 61.515 33.2256 62.356 32.1065C63.2835 30.8916 63.9516 29.4992 64.3189 28.0155C64.4361 27.5183 64.6756 26.8811 64.0642 26.5878C63.7984 26.4952 63.5083 26.5008 63.2464 26.6038C62.9845 26.7067 62.7681 26.9 62.6365 27.1488C61.6931 28.3979 60.8012 29.685 59.9474 30.9851C59.5527 31.5965 59.2973 32.2974 58.9149 33.0494V33.0499Z" fill="white"/>
<path d="M17.0597 0C16.703 1.12144 16.3569 2.1158 16.0911 3.12246C15.543 5.17209 15.9892 7.13739 16.6134 9.11264C17.4034 11.6237 19.0988 13.4713 20.8193 15.3201C22.5398 17.1688 24.0694 19.1564 24.6175 21.6798C25.0851 23.7374 25.0677 25.8756 24.5666 27.9253C23.871 30.8176 22.6994 33.5742 21.0998 36.0822C19.7055 38.3678 17.6147 40.1457 15.1348 41.1548C12.0762 42.302 9.04446 42.251 6.14922 40.4918C3.02676 38.5927 1.25471 35.7888 0.36283 32.322C-0.363909 29.531 0.0952057 26.8173 0.910957 24.1651C1.49656 22.2912 2.38962 20.5197 3.15442 18.7102C3.25502 18.5366 3.3794 18.3779 3.52394 18.2388C3.58777 18.2645 3.6516 18.2897 3.72773 18.3155C3.70003 18.5572 3.70436 18.8016 3.74061 19.0422C3.8911 19.8699 4.10849 20.684 4.39064 21.4766C4.45899 21.6992 4.5812 21.9015 4.74643 22.0656C4.91166 22.2297 5.11482 22.3505 5.3379 22.4174C5.56098 22.4842 5.7971 22.495 6.02534 22.4488C6.25359 22.4025 6.46691 22.3007 6.6464 22.1524C7.25037 21.8071 7.73338 21.2843 8.02979 20.6549C8.3262 20.0255 8.42162 19.3201 8.30308 18.6346C8.17542 17.8189 8.03546 17.0031 7.93357 16.1751C7.47445 12.1473 8.8641 8.66817 11.2089 5.50705C12.7674 3.45973 14.6134 1.64812 16.6896 0.128249C16.8104 0.078389 16.9339 0.0355669 17.0597 0ZM20.5774 23.4243C20.5265 22.9142 20.5136 22.4048 20.4375 21.9076C20.4259 21.7148 20.3752 21.5264 20.2883 21.3538C20.2015 21.1813 20.0804 21.0283 19.9324 20.9042C19.7844 20.7801 19.6126 20.6875 19.4276 20.6321C19.2426 20.5766 19.0482 20.5595 18.8563 20.5818C18.1429 20.6447 17.4537 20.8716 16.8424 21.2447C15.1857 22.3281 14.1404 23.9724 13.1847 25.6549C11.9097 27.9798 10.9293 30.4545 10.266 33.0218C9.88799 34.4298 9.59852 35.8602 9.39934 37.3044C9.28222 38.1711 9.32263 39.1526 10.2532 39.6749C11.2346 40.2359 12.1904 39.8506 13.0957 39.4073C13.1497 39.3724 13.2008 39.3333 13.2485 39.2902C14.4798 38.417 15.5062 37.2861 16.2562 35.9762C17.608 33.72 18.6539 31.294 19.3664 28.7621C19.8893 27.0076 20.4884 25.2871 20.5774 23.4243Z" fill="white"/>
<path d="M78.9258 35.6617C79.7415 36.4517 79.8042 36.758 79.321 37.586C78.7175 38.687 77.8629 39.6302 76.8264 40.3389C75.79 41.0476 74.601 41.5019 73.3561 41.6648C72.6845 41.7308 72.0066 41.6746 71.355 41.499C70.8239 41.3718 70.3518 41.0679 70.016 40.6373C69.6803 40.2066 69.5007 39.6746 69.5069 39.1285C69.3897 37.5474 70.1059 36.1969 70.667 34.8208C71.5975 32.5521 72.5409 30.2964 73.5364 27.9106C73.2307 27.9744 73.0263 28.0125 72.8226 28.0634C71.0892 28.4839 70.0567 27.5534 70.3244 25.7948C70.6429 23.73 72.1345 21.9327 73.8421 21.5251C74.0473 21.4768 74.2564 21.447 74.4669 21.4361C75.856 21.3852 76.6718 22.239 76.4041 23.6029C76.152 24.5724 75.8413 25.5258 75.4736 26.4577H78.9023C78.9096 26.5906 78.8968 26.7239 78.8643 26.853C77.5513 29.9755 76.239 33.1108 74.9407 36.2338C74.8328 36.4643 74.7433 36.703 74.6731 36.9477C74.4564 37.8261 74.8388 38.2477 75.7436 38.1189C76.3303 38.0142 76.8877 37.7848 77.3781 37.4462C77.8685 37.1075 78.2804 36.6675 78.5861 36.156C78.6962 36.0183 78.7981 35.8514 78.9258 35.6617Z" fill="white"/>
<path d="M114.683 27.7519C114.479 27.7899 114.326 27.8286 114.161 27.8537C112.169 28.2871 111.089 27.2295 111.611 25.2771C111.892 23.9058 112.691 22.6958 113.842 21.8993C114.283 21.6105 114.777 21.4115 115.295 21.3137C117.092 20.9951 118.099 22.1294 117.589 23.8904C117.36 24.6681 116.99 25.42 116.659 26.2609H120.202C119.884 27.0895 119.654 27.7776 119.374 28.4528C118.239 31.1677 117.079 33.8826 115.971 36.6097C115.902 36.777 115.871 36.9574 115.879 37.1381C115.888 37.3188 115.937 37.4953 116.022 37.6551C116.17 37.7805 116.343 37.8718 116.531 37.9225C116.718 37.9731 116.914 37.9817 117.105 37.9479C117.716 37.8386 118.29 37.5817 118.779 37.1995C119.268 36.8174 119.656 36.3216 119.909 35.7554C120.979 33.3081 121.974 30.8362 122.98 28.3632C123.39 27.3677 123.018 26.8084 121.961 26.6808L121.527 26.6427C121.604 25.94 122.738 24.514 123.363 24.5017C124.391 24.4544 125.421 24.5228 126.434 24.7055C126.884 24.7896 127.284 25.043 127.552 25.4136C127.82 25.7841 127.935 26.2434 127.874 26.6966C127.773 27.7889 127.533 28.8639 127.16 29.8958C126.307 32.1796 125.312 34.4049 124.42 36.6636C124.357 36.8228 124.327 36.993 124.331 37.164C124.336 37.3351 124.375 37.5035 124.446 37.6592C124.726 38.1054 125.248 38.0796 125.72 37.9397C126.386 37.744 126.998 37.3989 127.511 36.9306C128.023 36.4624 128.422 35.8834 128.677 35.2377C129.977 32.1404 131.239 29.0179 132.526 25.9078C132.819 25.1939 133.125 24.4678 133.469 23.6391H131.033C131.466 22.8363 131.811 22.1751 132.193 21.5362C132.269 21.4191 132.524 21.3834 132.703 21.3605C132.957 21.3287 133.213 21.3287 133.467 21.3605C134.143 21.4496 134.602 21.2838 134.756 20.5196C134.794 20.3933 134.863 20.2784 134.956 20.1851C135.05 20.0917 135.165 20.0228 135.291 19.9844C136.77 19.6787 138.248 19.411 139.726 19.1434C139.828 19.1305 139.93 19.1434 140.16 19.1434C139.867 19.8825 139.612 20.5583 139.306 21.3354H143.155C142.696 22.164 142.339 22.8392 141.932 23.5021C141.868 23.6192 141.587 23.6298 141.409 23.6298C140.607 23.6427 139.791 23.6555 138.988 23.6298C138.813 23.599 138.633 23.6341 138.482 23.7283C138.332 23.8225 138.221 23.9691 138.172 24.1398C137.051 26.9057 135.904 29.6586 134.769 32.4244C134.184 33.8521 133.648 35.305 133.012 36.7199C132.63 37.5485 133.357 38.058 134.019 37.9818C135.536 37.8161 137.116 36.0189 137.333 34.8594C137.892 31.74 139.502 28.9061 141.896 26.8295C142.827 25.9702 143.926 25.3126 145.124 24.8981C146.321 24.4836 147.592 24.3212 148.855 24.4209C149.628 24.4571 150.364 24.7646 150.932 25.2894C151.501 25.8142 151.867 26.5227 151.965 27.2904C152.132 28.8287 151.698 30.372 150.754 31.5981C150.073 32.6079 149.139 33.4217 148.045 33.9583C146.952 34.4949 145.737 34.7357 144.521 34.6568C143.909 34.631 143.285 34.6696 142.673 34.6439C142.263 34.631 142.112 34.7967 142.049 35.1791C141.616 37.4735 143.234 39.2069 145.72 39.0154C146.845 38.9283 147.942 38.6161 148.945 38.0973C149.947 37.5784 150.836 36.8635 151.557 35.9949C151.667 35.859 151.82 35.7646 151.99 35.7272C151.997 36.0518 151.972 36.3763 151.914 36.6958C151.615 37.7076 151.062 38.6261 150.308 39.3641C149.554 40.1021 148.624 40.635 147.606 40.9122C145.691 41.5125 143.668 41.6866 141.679 41.4223C140.818 41.3427 139.992 41.0349 139.289 40.5305C138.586 40.0262 138.029 39.3435 137.677 38.5528L137.448 38.0556C136.67 38.7584 135.984 39.4956 135.179 40.0947C133.898 41.0979 132.294 41.5966 130.67 41.4966C130.003 41.521 129.348 41.3094 128.821 40.8991C128.295 40.4888 127.929 39.9061 127.789 39.2532C127.114 39.7117 126.464 40.1966 125.763 40.6042C124.505 41.3857 123.006 41.6804 121.546 41.4328C120.979 41.3752 120.447 41.1334 120.03 40.7445C119.613 40.3555 119.336 39.8407 119.239 39.279C118.537 39.7504 117.914 40.2224 117.248 40.6048C116.205 41.2328 114.999 41.5384 113.782 41.4832C111.498 41.3942 110.302 39.9922 110.837 37.7745C111.246 36.3295 111.757 34.9154 112.367 33.5429C113.106 31.6947 113.896 29.8723 114.661 28.0242C114.693 27.9685 114.683 27.8819 114.683 27.7519ZM142.799 32.7992C144.252 33.2326 145.54 32.8759 146.317 31.8306C147.261 30.5749 147.917 29.1268 148.238 27.5891C148.239 27.1874 148.161 26.7896 148.009 26.4178C147.599 26.4883 147.194 26.5862 146.798 26.7106C146.589 26.8135 146.412 26.9725 146.288 27.1698C145.585 28.1384 144.848 29.107 144.21 30.1265C143.677 30.9639 143.269 31.8816 142.797 32.801L142.799 32.7992Z" fill="white"/>
<path d="M100.406 21.1239C96.9009 21.8378 94.0713 23.8388 91.1532 25.8673C91.1532 25.6917 91.1152 25.5868 91.1532 25.5359C92.1708 24.1545 93.26 22.8272 94.4162 21.5596C96.0606 19.916 98.2731 18.966 100.597 18.9056C102.562 18.7696 104.533 18.761 106.498 18.8799C107.049 18.897 107.59 19.0255 108.09 19.2577C108.589 19.4898 109.036 19.8207 109.405 20.2305C109.773 20.6402 110.054 21.1203 110.231 21.6417C110.409 22.1632 110.478 22.7151 110.437 23.2643C110.334 24.6541 109.721 25.9569 108.716 26.922C107.77 27.8978 106.651 28.6888 105.415 29.2545C105.304 29.3194 105.198 29.3918 105.097 29.4712C108.002 30.6313 108.334 33.4094 107.518 35.6148C106.511 38.3548 104.766 40.3687 101.961 41.3122C100.199 41.9112 98.3126 42.0522 96.4805 41.7221C94.4498 41.3977 92.3927 41.2697 90.3375 41.3397H89.5978C89.8016 40.7787 89.9674 40.333 90.146 39.8997C92.3635 34.4957 94.5888 29.0917 96.8219 23.6877C96.925 23.4434 97.098 23.235 97.3191 23.0886C98.1729 22.5276 99.0525 22.0181 99.9063 21.4829C100.087 21.3652 100.256 21.2387 100.406 21.1239ZM95.1939 39.5284C96.2767 39.926 97.4662 39.9214 98.5459 39.5155C99.5626 39.1086 100.486 38.499 101.259 37.7238C102.033 36.9485 102.641 36.0239 103.045 35.0063C103.511 34.07 103.73 33.0304 103.682 31.9858C103.665 31.761 103.598 31.543 103.486 31.3477C103.373 31.1525 103.218 30.985 103.032 30.8578C102.846 30.7306 102.634 30.6468 102.411 30.6126C102.188 30.5785 101.961 30.5948 101.745 30.6605C100.927 30.8786 100.08 30.9689 99.234 30.9282C99.0823 30.9009 98.9258 30.9316 98.7957 31.0143C98.6655 31.0969 98.5711 31.2255 98.5313 31.3744C98.0979 32.4578 97.6529 33.5283 97.2184 34.5988C96.5566 36.2021 95.8943 37.8079 95.1933 39.5284H95.1939ZM99.7441 28.4019C101.49 28.861 102.65 28.5775 103.848 27.3952C104.729 26.5311 105.374 25.4563 105.722 24.2727C105.909 23.5397 105.943 22.7762 105.824 22.0293C105.736 21.5317 105.465 21.0853 105.064 20.7784C104.662 20.4716 104.16 20.3267 103.657 20.3726C103.456 20.3609 103.257 20.4193 103.095 20.5378C102.932 20.6564 102.816 20.8277 102.765 21.0226C102.294 22.1938 101.81 23.365 101.325 24.5404C100.788 25.8269 100.266 27.1141 99.7435 28.4019H99.7441Z" fill="white"/>
<path d="M125.91 20.283C125.905 19.7526 126.057 19.2327 126.346 18.7885C126.636 18.3442 127.051 17.9956 127.538 17.7864C128.025 17.5771 128.564 17.5167 129.085 17.6126C129.607 17.7084 130.089 17.9564 130.47 18.3252C130.851 18.6941 131.114 19.1674 131.227 19.6856C131.34 20.2038 131.297 20.7438 131.104 21.2378C130.911 21.7317 130.576 22.1575 130.141 22.4616C129.707 22.7657 129.192 22.9345 128.662 22.9469C128.306 22.9547 127.952 22.8917 127.62 22.7617C127.288 22.6317 126.986 22.4371 126.73 22.1894C126.474 21.9416 126.27 21.6456 126.129 21.3183C125.988 20.9911 125.913 20.6392 125.91 20.283Z" fill="white"/>
</svg>
